<svg id="visual" viewBox="0 0 900 600" width="900" height="600" xmlns="http://www.w3.org/2000/svg" xmlns:xlink="http://www.w3.org/1999/xlink" version="1.1"><rect x="0" y="0" width="900" height="600" fill="#e6fff7"></rect><path d="M0 398L21.5 401.2C43 404.3 86 410.7 128.8 409.2C171.7 407.7 214.3 398.3 257.2 397.8C300 397.3 343 405.7 385.8 413C428.7 420.3 471.3 426.7 514.2 430.5C557 434.3 600 435.7 642.8 433.8C685.7 432 728.3 427 771.2 425.5C814 424 857 426 878.5 427L900 428L900 601L878.5 601C857 601 814 601 771.2 601C728.3 601 685.7 601 642.8 601C600 601 557 601 514.2 601C471.3 601 428.7 601 385.8 601C343 601 300 601 257.2 601C214.3 601 171.7 601 128.8 601C86 601 43 601 21.5 601L0 601Z" fill="#00bfa6" stroke-linecap="round" stroke-linejoin="miter"></path></svg>